<?xml version="1.0" encoding="UTF-8" standalone="no"?><svg width="196" height="80" viewBox="0 0 196 80" fill="none" xmlns="http://www.w3.org/2000/svg">
<g clip-path="url(#clip0_13_35)">
<path d="M127.509 25.8189V35.5052H143.46V45.1198H127.509V64.3488H117.734V16.2593H149.363V25.8189H127.509Z" fill="white"/>
<path d="M155.452 16.2593H159.739L186.298 44.6424V16.2593H196V64.3488H191.64L165.153 36.0417V64.3488H155.452V16.2593Z" fill="white"/>
<path d="M92.5355 64.3362C89.8898 64.3683 87.2632 63.8932 84.8044 62.9379C82.5525 62.07 80.5056 60.7619 78.7889 59.0938C77.1083 57.4167 75.7862 55.4292 74.8996 53.2473C73.9411 50.8657 73.4627 48.3253 73.4908 45.7661V16.2593H83.1925V44.5622C83.171 46.0369 83.4319 47.5026 83.9617 48.8836C84.4272 50.0921 85.1321 51.1989 86.036 52.1406C86.881 53.012 87.8965 53.7087 89.0221 54.1894C90.133 54.6548 91.329 54.8948 92.5377 54.8948C93.7463 54.8948 94.9423 54.6548 96.0532 54.1894C97.1783 53.7057 98.1946 53.0094 99.0436 52.1406C99.9462 51.1987 100.65 50.0919 101.114 48.8836C101.645 47.5029 101.907 46.0372 101.887 44.5622V16.2593H111.649V45.7788C111.686 48.3375 111.212 50.8786 110.253 53.26C109.37 55.4533 108.031 57.4439 106.321 59.1065C104.591 60.7751 102.533 62.0829 100.271 62.9506C97.8097 63.9015 95.1818 64.3722 92.5355 64.3362V64.3362Z" fill="white"/>
<path d="M7.69653 69.6674C7.6986 69.6497 7.69657 69.6318 7.69057 69.615C7.68456 69.5982 7.67475 69.5829 7.66187 69.5703C7.64899 69.5578 7.63338 69.5482 7.61619 69.5423C7.59899 69.5364 7.58066 69.5344 7.56256 69.5365H6.82791C6.80981 69.5344 6.79148 69.5364 6.77429 69.5423C6.75709 69.5482 6.74148 69.5578 6.7286 69.5703C6.71572 69.5829 6.70593 69.5982 6.69993 69.615C6.69393 69.6318 6.69187 69.6497 6.69394 69.6674V75.6913C6.69394 77.7274 5.65249 78.9102 3.85044 78.9102C2.04839 78.9102 0.993931 77.7274 0.993931 75.6913V69.6674C0.996001 69.6497 0.993971 69.6318 0.98797 69.615C0.98197 69.5982 0.972151 69.5829 0.959273 69.5703C0.946395 69.5578 0.930785 69.5482 0.91359 69.5423C0.896395 69.5364 0.878061 69.5344 0.859967 69.5365H0.13829C0.120196 69.5344 0.101862 69.5364 0.0846673 69.5423C0.0674722 69.5482 0.0518617 69.5578 0.0389838 69.5703C0.026106 69.5829 0.0162873 69.5982 0.0102866 69.615C0.00428584 69.6318 0.00225636 69.6497 0.00432558 69.6674V75.6913C0.00432558 78.2892 1.4261 79.8227 3.85044 79.8227C6.27478 79.8227 7.69653 78.2892 7.69653 75.6913V69.6674ZM11.7241 72.7427C11.7255 72.7248 11.7228 72.7068 11.7163 72.69C11.7098 72.6733 11.6996 72.6581 11.6864 72.6456C11.6732 72.6331 11.6573 72.6236 11.6399 72.6177C11.6226 72.6119 11.6041 72.6099 11.5858 72.6118H11.1234C11.0241 72.6118 10.9765 72.6625 10.9765 72.7427V79.5439C10.9765 79.6241 11.0241 79.6748 11.1234 79.6748H11.8192C11.8375 79.6777 11.8562 79.6764 11.8738 79.6708C11.8914 79.6653 11.9074 79.6557 11.9205 79.6429C11.9336 79.6301 11.9434 79.6145 11.9491 79.5972C11.9547 79.58 11.9562 79.5617 11.9532 79.5439V76.308C11.9532 74.4409 12.8391 73.351 14.33 73.351C15.4449 73.351 16.1061 74.1156 16.1061 75.3998V79.5439C16.1047 79.5618 16.1074 79.5797 16.1139 79.5965C16.1205 79.6133 16.1307 79.6285 16.1439 79.641C16.1571 79.6535 16.1729 79.663 16.1903 79.6688C16.2076 79.6747 16.2261 79.6767 16.2444 79.6748H16.9531C16.9712 79.6768 16.9895 79.6748 17.0067 79.669C17.0239 79.6631 17.0395 79.6535 17.0524 79.6409C17.0653 79.6283 17.0751 79.6131 17.0811 79.5963C17.0871 79.5795 17.0891 79.5615 17.0871 79.5439V75.3195C17.0871 73.5453 16.0715 72.4555 14.4164 72.4555C13.9444 72.437 13.4755 72.5363 13.0536 72.744C12.6317 72.9517 12.2709 73.2609 12.005 73.6425C11.9186 73.7608 11.8192 73.7608 11.7846 73.6425L11.7241 72.7427ZM20.9721 69.1774C20.8384 69.1732 20.7065 69.2082 20.5933 69.2779C20.4802 69.3476 20.391 69.4489 20.3372 69.5686C20.2834 69.6883 20.2675 69.821 20.2916 69.9496C20.3157 70.0782 20.3786 70.1968 20.4722 70.2902C20.5658 70.3836 20.6859 70.4474 20.817 70.4735C20.9481 70.4995 21.0841 70.4866 21.2076 70.4364C21.3311 70.3863 21.4364 70.3011 21.51 70.1919C21.5835 70.0827 21.622 69.9545 21.6203 69.8237C21.6295 69.7377 21.6192 69.6508 21.5901 69.5691C21.5609 69.4875 21.5137 69.4132 21.4518 69.3514C21.3899 69.2897 21.3148 69.2421 21.2318 69.212C21.1489 69.1819 21.0602 69.1701 20.9721 69.1774V69.1774ZM21.6203 72.7427C21.6224 72.725 21.6203 72.7071 21.6143 72.6903C21.6083 72.6735 21.5985 72.6582 21.5856 72.6456C21.5728 72.6331 21.5571 72.6235 21.5399 72.6176C21.5227 72.6117 21.5044 72.6097 21.4863 72.6118H19.9349C19.9167 72.6099 19.8982 72.6119 19.8808 72.6177C19.8635 72.6236 19.8476 72.6331 19.8344 72.6456C19.8212 72.6581 19.811 72.6733 19.8045 72.69C19.7979 72.7068 19.7953 72.7248 19.7966 72.7427V73.3552C19.7953 73.3732 19.7979 73.3911 19.8045 73.4079C19.811 73.4247 19.8212 73.4399 19.8344 73.4524C19.8476 73.4649 19.8635 73.4744 19.8808 73.4802C19.8982 73.4861 19.9167 73.4881 19.9349 73.4862H20.6307V79.5439C20.6286 79.5615 20.6307 79.5795 20.6367 79.5963C20.6427 79.6131 20.6524 79.6283 20.6653 79.6409C20.6782 79.6535 20.6938 79.6631 20.711 79.669C20.7282 79.6748 20.7465 79.6768 20.7646 79.6748H21.4777C21.4958 79.6768 21.5141 79.6748 21.5313 79.669C21.5485 79.6631 21.5641 79.6535 21.577 79.6409C21.5899 79.6283 21.5997 79.6131 21.6057 79.5963C21.6117 79.5795 21.6137 79.5615 21.6116 79.5439L21.6203 72.7427ZM31.1707 72.785C31.2183 72.6751 31.1707 72.616 31.0713 72.616H30.3064C30.2726 72.6142 30.2392 72.6243 30.2123 72.6445C30.1853 72.6646 30.1666 72.6934 30.1595 72.7258L28.4568 76.4263C28.196 76.995 27.9948 77.588 27.8562 78.1963C27.8043 78.3273 27.6833 78.3273 27.6444 78.1963C27.4924 77.5907 27.2885 76.9986 27.0351 76.4263L25.3324 72.7258C25.3245 72.6938 25.3056 72.6655 25.2789 72.6455C25.2521 72.6255 25.2192 72.6151 25.1855 72.616H24.4379C24.3255 72.616 24.278 72.6751 24.3255 72.785L26.2875 77.0473C26.6487 77.8637 26.9519 78.7036 27.195 79.5608C27.196 79.5784 27.2008 79.5956 27.2088 79.6113C27.2168 79.6271 27.228 79.6411 27.2418 79.6526C27.2555 79.664 27.2714 79.6726 27.2886 79.6779C27.3058 79.6832 27.324 79.685 27.3419 79.6833H28.15C28.1875 79.6859 28.2246 79.6748 28.2541 79.6522C28.2837 79.6295 28.3036 79.5969 28.3099 79.5608C28.5566 78.7068 28.8538 77.8675 29.2001 77.0473L31.1707 72.785ZM38.7549 79.4678C38.7732 79.4668 38.791 79.4613 38.8067 79.452C38.8223 79.4427 38.8355 79.4297 38.8448 79.4143C38.8542 79.3989 38.8596 79.3815 38.8605 79.3635C38.8614 79.3456 38.8578 79.3278 38.85 79.3115L38.6814 78.7243C38.6712 78.686 38.6461 78.653 38.6114 78.6325C38.5767 78.612 38.5351 78.6055 38.4956 78.6145L38.0419 78.7497C37.5893 78.8828 37.1185 78.9469 36.646 78.9398C35.4101 78.9398 34.589 78.2217 34.3945 76.9755L37.3331 76.5108C38.6901 76.2911 39.3556 75.6659 39.3556 74.6521C39.3556 73.275 38.3227 72.4724 36.6201 72.4724C34.576 72.4724 33.3271 73.8875 33.3271 76.1391C33.3271 78.3906 34.5631 79.8269 36.646 79.8269C37.198 79.8356 37.7479 79.7586 38.2752 79.5988L38.7549 79.4678ZM34.3254 76.1644C34.3772 74.2719 35.2199 73.351 36.6201 73.351C37.735 73.351 38.3832 73.8284 38.3832 74.6563C38.3832 75.2182 37.977 75.5561 37.1819 75.6871L34.3254 76.1644ZM45.8637 72.5991C45.8637 72.5062 45.8248 72.4681 45.7254 72.4681C45.2248 72.468 44.7333 72.5992 44.3023 72.8482C43.8713 73.0971 43.5166 73.4546 43.2751 73.8833C43.193 74.0016 43.1066 73.9678 43.0807 73.8453L42.9726 72.7427C42.9704 72.7065 42.9538 72.6725 42.9264 72.6481C42.8989 72.6236 42.8628 72.6106 42.8257 72.6118H42.359C42.2596 72.6118 42.2121 72.6625 42.2121 72.7427V79.5439C42.2121 79.6241 42.2596 79.6748 42.359 79.6748H43.0547C43.0732 79.6775 43.092 79.6761 43.1097 79.6705C43.1275 79.665 43.1437 79.6555 43.1571 79.6428C43.1705 79.6302 43.1807 79.6146 43.1869 79.5975C43.1932 79.5803 43.1952 79.5619 43.193 79.5439V77.2416C43.193 74.7535 44.1221 73.4397 45.7254 73.351C45.8248 73.351 45.8637 73.3046 45.8637 73.2201V72.5991ZM51.7798 76.6967C52.4755 76.8994 52.7953 77.2247 52.7953 77.7739C52.7953 78.492 52.1471 78.9356 51.0322 78.9356C50.3499 78.9464 49.6706 78.8451 49.0227 78.6356L48.6294 78.5047C48.6135 78.4972 48.5959 78.4935 48.5781 78.4939C48.5604 78.4944 48.5431 78.4989 48.5275 78.5071C48.5119 78.5154 48.4985 78.5271 48.4884 78.5413C48.4784 78.5556 48.4719 78.572 48.4696 78.5892L48.2492 79.1763C48.2418 79.1943 48.2386 79.2136 48.2398 79.2329C48.241 79.2522 48.2465 79.271 48.256 79.288C48.2655 79.305 48.2787 79.3197 48.2947 79.331C48.3107 79.3424 48.3291 79.3502 48.3485 79.3538L48.7548 79.4847C49.4887 79.7233 50.2589 79.8377 51.0322 79.8227C52.7608 79.8227 53.7763 79.0538 53.7763 77.7739C53.7763 76.815 53.2621 76.194 52.0866 75.9067L50.3321 75.4167C49.658 75.2224 49.3641 74.9013 49.3641 74.386C49.3641 73.7608 49.9518 73.3552 50.9803 73.3552C51.4895 73.3522 51.9968 73.4161 52.4885 73.5453L53.0632 73.7016C53.1497 73.7397 53.2102 73.7016 53.2491 73.6172L53.409 73.0426C53.4191 73.0259 53.4249 73.0071 53.4258 72.9877C53.4267 72.9683 53.4227 72.9489 53.4142 72.9314C53.4056 72.9139 53.3928 72.8986 53.3768 72.8871C53.3609 72.8756 53.3422 72.8681 53.3226 72.8652L52.7348 72.6836C52.1597 72.5346 51.5666 72.4622 50.9717 72.4681C49.3425 72.4681 48.3788 73.1863 48.3788 74.386C48.3788 75.3533 48.8974 75.9279 50.0123 76.2067L51.7798 76.6967ZM57.2767 69.1774C57.1448 69.1807 57.0169 69.2221 56.9089 69.2962C56.801 69.3703 56.7178 69.4739 56.6699 69.5941C56.622 69.7142 56.6114 69.8455 56.6396 69.9715C56.6677 70.0975 56.7332 70.2126 56.828 70.3023C56.9227 70.392 57.0425 70.4524 57.1722 70.4758C57.3019 70.4993 57.4358 70.4847 57.5571 70.4341C57.6784 70.3834 57.7818 70.2989 57.8541 70.191C57.9264 70.0832 57.9646 69.9569 57.9638 69.8279C57.9731 69.7416 57.9627 69.6542 57.9334 69.5723C57.904 69.4903 57.8564 69.4157 57.794 69.3539C57.7315 69.292 57.6559 69.2445 57.5724 69.2147C57.4889 69.185 57.3997 69.1736 57.3113 69.1816L57.2767 69.1774ZM57.9638 72.7427C57.9651 72.7252 57.9625 72.7076 57.9562 72.6912C57.95 72.6747 57.9401 72.6598 57.9274 72.6473C57.9147 72.6349 57.8994 72.6253 57.8826 72.6192C57.8658 72.613 57.8478 72.6105 57.8298 72.6118H56.2827C56.2647 72.6097 56.2463 72.6117 56.2291 72.6176C56.2119 72.6235 56.1963 72.6331 56.1834 72.6456C56.1706 72.6582 56.1608 72.6735 56.1548 72.6903C56.1488 72.7071 56.1467 72.725 56.1488 72.7427V73.3552C56.1467 73.3729 56.1488 73.3908 56.1548 73.4077C56.1608 73.4245 56.1706 73.4397 56.1834 73.4523C56.1963 73.4649 56.2119 73.4745 56.2291 73.4804C56.2463 73.4862 56.2647 73.4882 56.2827 73.4862H56.9828V79.5439C56.9798 79.5617 56.9813 79.58 56.9869 79.5972C56.9926 79.6145 57.0024 79.6301 57.0155 79.6429C57.0286 79.6557 57.0446 79.6653 57.0622 79.6708C57.0798 79.6764 57.0985 79.6777 57.1168 79.6748H57.8298C57.8478 79.6761 57.8658 79.6735 57.8826 79.6674C57.8994 79.6613 57.9147 79.6517 57.9274 79.6392C57.9401 79.6268 57.95 79.6119 57.9562 79.5954C57.9625 79.579 57.9651 79.5614 57.9638 79.5439V72.7427ZM67.2204 69.4055C67.2204 69.3084 67.1815 69.2619 67.0821 69.2619H66.3993C66.3793 69.2591 66.359 69.2608 66.3398 69.267C66.3207 69.2732 66.3033 69.2837 66.289 69.2977C66.2747 69.3116 66.264 69.3286 66.2576 69.3474C66.2513 69.3661 66.2495 69.386 66.2524 69.4055V73.0426L65.7856 72.8272C65.2462 72.5778 64.6533 72.459 64.0571 72.4808C62.0216 72.4808 60.7987 73.8579 60.7987 76.1475C60.7987 78.4371 61.9611 79.8353 63.8712 79.8353C64.3275 79.8393 64.7776 79.7329 65.1817 79.5259C65.5858 79.3188 65.9313 79.0173 66.1876 78.6483C66.287 78.5047 66.3863 78.5427 66.395 78.6737L66.4598 79.5608C66.4603 79.5789 66.4646 79.5967 66.4723 79.6132C66.4801 79.6297 66.4912 79.6445 66.5049 79.6567C66.5186 79.6689 66.5347 79.6783 66.5522 79.6843C66.5697 79.6903 66.5882 79.6929 66.6067 79.6917H67.0691C67.0876 79.6944 67.1064 79.693 67.1241 79.6874C67.1419 79.6819 67.1581 79.6724 67.1715 79.6597C67.1849 79.647 67.195 79.6315 67.2013 79.6144C67.2075 79.5972 67.2096 79.5788 67.2074 79.5608L67.2204 69.4055ZM66.2524 73.9678V76.0039C66.2524 77.6683 65.5048 78.9609 63.9966 78.9609C62.6267 78.9609 61.8056 77.8964 61.7926 76.1602C61.7796 74.424 62.6569 73.3933 64.096 73.3806C64.63 73.361 65.1605 73.4728 65.6387 73.7059L66.2524 73.9678ZM70.7726 72.8652C70.753 72.8681 70.7343 72.8756 70.7183 72.8871C70.7024 72.8986 70.6895 72.9139 70.681 72.9314C70.6724 72.9489 70.6685 72.9683 70.6694 72.9877C70.6703 73.0071 70.676 73.0259 70.6862 73.0426L70.8461 73.6214C70.8518 73.6389 70.8612 73.655 70.8736 73.6687C70.8861 73.6825 70.9014 73.6935 70.9185 73.701C70.9357 73.7086 70.9542 73.7126 70.973 73.7127C70.9918 73.7128 71.0104 73.709 71.0276 73.7016L71.5548 73.558C71.9997 73.4317 72.4615 73.3719 72.9247 73.3806C74.2211 73.3806 74.9472 74.0987 74.9472 75.3576V75.5477H72.6568C70.9282 75.5477 69.9991 76.4348 69.9991 77.7147C69.9991 78.9947 70.8936 79.8269 72.4105 79.8269C73.5254 79.8269 74.2989 79.5016 74.8132 78.868C74.9601 78.699 75.0682 78.6863 75.12 78.868L75.1546 79.5396C75.1805 79.6199 75.2151 79.6706 75.3145 79.6706H75.7812C75.7993 79.6726 75.8176 79.6706 75.8348 79.6647C75.852 79.6589 75.8676 79.6493 75.8805 79.6367C75.8934 79.6241 75.9032 79.6089 75.9092 79.592C75.9152 79.5752 75.9172 79.5573 75.9152 79.5396V75.3195C75.9152 73.5327 74.7613 72.4555 72.9247 72.4555C72.3823 72.4493 71.842 72.5219 71.3214 72.6709L70.7726 72.8652ZM74.9472 76.3714V76.5657C74.9472 78.0992 74.0526 78.9609 72.5098 78.9609C71.5418 78.9609 70.993 78.4793 70.993 77.6556C70.993 76.8319 71.5289 76.3883 72.6698 76.3883L74.9472 76.3714ZM85.068 69.4055C85.068 69.3084 85.0291 69.2619 84.9297 69.2619H84.247C84.1476 69.2619 84.1087 69.3084 84.1087 69.4055V73.0426L83.6333 72.8272C83.094 72.5775 82.501 72.4586 81.9047 72.4808C79.8736 72.4808 78.6463 73.8579 78.6463 76.1475C78.6463 78.4371 79.8088 79.8353 81.7232 79.8353C82.1787 79.8386 82.628 79.7319 83.0313 79.5249C83.4346 79.3178 83.7794 79.0167 84.0352 78.6483C84.1346 78.5047 84.234 78.5427 84.247 78.6737L84.3247 79.5439C84.3253 79.562 84.3295 79.5798 84.3373 79.5963C84.345 79.6128 84.3561 79.6276 84.3698 79.6398C84.3835 79.652 84.3996 79.6614 84.4171 79.6674C84.4346 79.6734 84.4532 79.676 84.4717 79.6748H84.934C84.9525 79.6775 84.9713 79.6761 84.9891 79.6705C85.0068 79.665 85.023 79.6555 85.0364 79.6428C85.0498 79.6302 85.06 79.6146 85.0662 79.5975C85.0725 79.5803 85.0745 79.5619 85.0723 79.5439L85.068 69.4055ZM84.1087 73.9678V76.0039C84.1087 77.6683 83.3524 78.9609 81.8442 78.9609C80.4743 78.9609 79.6532 77.8964 79.6403 76.1602C79.6273 74.424 80.5046 73.3933 81.9566 73.3806C82.4863 73.3624 83.0122 73.4742 83.4864 73.7059L84.1087 73.9678ZM93.3696 79.4594C93.3882 79.459 93.4065 79.454 93.4228 79.445C93.439 79.4359 93.4527 79.4231 93.4626 79.4075C93.4725 79.392 93.4782 79.3744 93.4793 79.3561C93.4804 79.3379 93.4769 79.3196 93.4689 79.3031L93.2961 78.7159C93.2869 78.6778 93.2626 78.6449 93.2285 78.6243C93.1945 78.6038 93.1536 78.5972 93.1146 78.6061L92.6608 78.7412C92.2039 78.8743 91.7288 78.9384 91.2521 78.9313C90.0291 78.9313 89.208 78.2132 89.0092 76.967L91.9521 76.5024C93.3091 76.2827 93.9702 75.6575 93.9702 74.6437C93.9702 73.2665 92.9417 72.4639 91.2391 72.4639C89.195 72.4639 87.9461 73.8791 87.9461 76.1306C87.9461 78.3822 89.1821 79.8184 91.2521 79.8184C91.8042 79.829 92.3543 79.7519 92.8812 79.5903L93.3696 79.4594ZM88.9357 76.1644C88.9876 74.2719 89.8303 73.351 91.2261 73.351C92.341 73.351 92.9936 73.8284 92.9936 74.6563C92.9936 75.2182 92.5874 75.5561 91.7922 75.6871L88.9357 76.1644Z" fill="white"/>
<path d="M194.198 76.5064V76.612C194.198 77.799 193.489 78.42 192.193 78.42C191.406 78.42 190.965 78.0356 190.965 77.4146C190.965 76.8739 191.346 76.5064 192.141 76.5064H194.198ZM190.01 72.3032C189.986 72.3075 189.963 72.3172 189.942 72.3316C189.922 72.346 189.906 72.3647 189.894 72.3863C189.882 72.4078 189.876 72.4317 189.875 72.4562C189.874 72.4806 189.879 72.5048 189.889 72.5271L190.244 73.7141C190.249 73.7387 190.259 73.7619 190.274 73.7823C190.288 73.8026 190.308 73.8196 190.33 73.8321C190.352 73.8445 190.376 73.8521 190.402 73.8544C190.427 73.8566 190.453 73.8534 190.477 73.8451L191.065 73.6676C191.487 73.555 191.924 73.5024 192.361 73.5114C193.571 73.5114 194.22 74.0394 194.22 75.0068V75.1039H192.163C190.227 75.1039 189.185 76.0713 189.185 77.5836C189.185 79.0959 190.205 79.9999 192.016 79.9999C192.431 80.0245 192.848 79.9618 193.237 79.8161C193.626 79.6703 193.979 79.445 194.271 79.155C194.479 78.9649 194.578 78.9649 194.673 79.1804L194.812 79.6831C194.824 79.7269 194.851 79.7653 194.889 79.7915C194.927 79.8178 194.973 79.8302 195.019 79.8267H195.84C195.865 79.8304 195.891 79.8283 195.915 79.8204C195.939 79.8125 195.961 79.7991 195.979 79.7814C195.996 79.7636 196.009 79.742 196.017 79.7183C196.024 79.6946 196.026 79.6695 196.022 79.645V74.9476C196.022 73.0087 194.66 71.8808 192.443 71.8808C191.84 71.8767 191.239 71.9578 190.659 72.1216L190.01 72.3032Z" fill="white"/>
<path d="M179.868 72.2061C179.866 72.1834 179.859 72.1612 179.848 72.141C179.837 72.1208 179.822 72.1029 179.804 72.0884C179.786 72.0738 179.765 72.0629 179.743 72.0563C179.72 72.0497 179.697 72.0475 179.674 72.0499H178.852C178.727 72.0499 178.667 72.109 178.667 72.2188V79.6409C178.663 79.6656 178.665 79.6908 178.673 79.7144C178.682 79.7381 178.695 79.7596 178.713 79.7772C178.731 79.7948 178.753 79.8081 178.777 79.816C178.802 79.8238 178.827 79.8261 178.852 79.8226H180.309C180.334 79.8246 180.358 79.8212 180.382 79.8127C180.405 79.8043 180.426 79.7909 180.443 79.7735C180.461 79.7562 180.474 79.7353 180.482 79.7124C180.49 79.6894 180.493 79.6651 180.49 79.6409V75.9066C180.49 74.3479 181.19 73.4861 182.405 73.4861C183.299 73.4861 183.835 74.0986 183.835 75.104V79.6409C183.835 79.7634 183.9 79.8226 184.008 79.8226H185.477C185.59 79.8226 185.65 79.7634 185.65 79.6409V74.897C185.65 73.0088 184.522 71.8682 182.625 71.8682C182.199 71.8624 181.777 71.9475 181.388 72.1175C180.999 72.2875 180.653 72.5383 180.374 72.8525C180.188 73.0088 180.093 73.0299 179.993 72.8525L179.868 72.2061Z" fill="white"/>
<path d="M173.965 76.5065V76.6121C173.965 77.7991 173.265 78.4201 171.968 78.4201C171.182 78.4201 170.741 78.0357 170.741 77.4147C170.741 76.874 171.108 76.5065 171.916 76.5065H173.965ZM169.786 72.3033C169.761 72.308 169.738 72.3178 169.718 72.332C169.697 72.3463 169.68 72.3646 169.667 72.3857C169.655 72.4069 169.647 72.4304 169.644 72.4548C169.641 72.4792 169.644 72.5039 169.652 72.5272L170.019 73.7142C170.023 73.7391 170.033 73.7628 170.048 73.7836C170.062 73.8043 170.082 73.8216 170.104 73.8342C170.126 73.8468 170.151 73.8543 170.177 73.8562C170.203 73.858 170.229 73.8543 170.253 73.8451L170.84 73.6677C171.262 73.5542 171.699 73.5015 172.137 73.5114C173.347 73.5114 173.986 74.0395 173.986 75.0068V75.104H171.938C170.002 75.104 168.952 76.0713 168.952 77.5836C168.952 79.096 169.967 80 171.791 80C172.205 80.0258 172.62 79.9636 173.007 79.8178C173.394 79.6719 173.745 79.4458 174.034 79.1551C174.254 78.965 174.354 78.965 174.466 79.1805L174.604 79.6831C174.615 79.7279 174.642 79.7673 174.68 79.7938C174.718 79.8203 174.765 79.8321 174.812 79.8268H175.633C175.658 79.8288 175.683 79.8254 175.706 79.8169C175.729 79.8084 175.75 79.795 175.767 79.7777C175.785 79.7603 175.798 79.7395 175.806 79.7165C175.814 79.6936 175.817 79.6692 175.814 79.6451V74.9477C175.814 73.0087 174.457 71.8808 172.236 71.8808C171.633 71.8759 171.031 71.957 170.451 72.1216L169.786 72.3033Z" fill="white"/>
<path d="M166.675 79.5818C166.7 79.5786 166.725 79.5696 166.747 79.5555C166.769 79.5413 166.787 79.5225 166.8 79.5003C166.813 79.4782 166.82 79.4535 166.822 79.428C166.823 79.4026 166.819 79.3771 166.808 79.3537L166.428 78.1582C166.421 78.1351 166.41 78.1135 166.394 78.0948C166.379 78.0761 166.36 78.0606 166.338 78.0492C166.316 78.0378 166.292 78.0307 166.268 78.0284C166.243 78.0261 166.218 78.0286 166.195 78.0357L165.659 78.2047C165.263 78.3103 164.855 78.3671 164.445 78.3736C163.049 78.3736 162.349 77.4612 162.349 75.9066C162.349 74.3521 163.023 73.4861 164.484 73.4861C164.854 73.4913 165.221 73.5526 165.573 73.6677L166.134 73.8114C166.155 73.8208 166.178 73.8254 166.201 73.8247C166.224 73.824 166.246 73.8181 166.266 73.8074C166.286 73.7968 166.304 73.7816 166.317 73.7632C166.33 73.7449 166.339 73.7237 166.342 73.7016L166.722 72.4934C166.761 72.3836 166.722 72.3033 166.588 72.2653L165.892 72.0752C165.434 71.9459 164.96 71.8805 164.484 71.8809C161.891 71.8809 160.551 73.4396 160.551 75.9278C160.551 78.4159 161.921 80 164.44 80C164.955 79.9932 165.466 79.9208 165.961 79.7846L166.675 79.5818Z" fill="white"/>
<path d="M155.797 76.7937C156.338 76.9458 156.567 77.1866 156.567 77.5837C156.567 78.0737 156.104 78.3736 155.305 78.3736C154.595 78.3675 153.888 78.2782 153.2 78.1075L152.612 77.9427C152.591 77.9357 152.568 77.9333 152.545 77.9356C152.523 77.9378 152.501 77.9448 152.481 77.956C152.462 77.9672 152.445 77.9824 152.432 78.0005C152.418 78.0186 152.409 78.0392 152.405 78.061L152.025 79.2565C152.015 79.2799 152.01 79.3054 152.012 79.3309C152.013 79.3563 152.021 79.3811 152.034 79.4032C152.047 79.4253 152.065 79.4441 152.086 79.4583C152.108 79.4724 152.133 79.4814 152.159 79.4846L152.794 79.6663C153.612 79.8865 154.456 79.9987 155.305 80C157.241 80 158.382 79.0791 158.382 77.5837C158.382 76.422 157.746 75.7038 156.325 75.3448L154.682 74.9223C154.168 74.7787 153.948 74.5506 153.948 74.1789C153.948 73.8071 154.38 73.4734 155.136 73.4734C155.672 73.4747 156.206 73.54 156.726 73.6677L157.452 73.8578C157.475 73.867 157.5 73.8712 157.525 73.87C157.549 73.8689 157.574 73.8624 157.595 73.8511C157.617 73.8399 157.636 73.824 157.651 73.8047C157.666 73.7854 157.676 73.7632 157.682 73.7395L158.027 72.5272C158.035 72.5036 158.038 72.4787 158.035 72.454C158.033 72.4294 158.025 72.4055 158.012 72.3841C157.999 72.3626 157.982 72.3439 157.962 72.3293C157.941 72.3146 157.918 72.3043 157.893 72.2991L157.167 72.1343C156.504 71.9622 155.822 71.8728 155.136 71.8682C153.235 71.8682 152.111 72.7426 152.111 74.1789C152.111 75.3321 152.751 76.0249 154.121 76.3586L155.797 76.7937Z" fill="white"/>
<path d="M149.302 72.2188C149.304 72.1954 149.301 72.1717 149.293 72.1497C149.284 72.1276 149.271 72.1077 149.253 72.0915C149.236 72.0752 149.215 72.063 149.192 72.0558C149.169 72.0486 149.145 72.0466 149.121 72.0499H146.683C146.659 72.0467 146.635 72.0488 146.612 72.056C146.589 72.0632 146.567 72.0753 146.55 72.0914C146.532 72.1076 146.518 72.1274 146.509 72.1494C146.5 72.1715 146.496 72.1952 146.498 72.2188V73.465C146.497 73.4883 146.501 73.5116 146.51 73.5331C146.52 73.5546 146.534 73.5739 146.551 73.5896C146.569 73.6052 146.59 73.617 146.613 73.6239C146.636 73.6309 146.66 73.6329 146.683 73.6298H147.492V79.641C147.492 79.7635 147.552 79.8226 147.664 79.8226H149.121C149.146 79.8263 149.171 79.8242 149.196 79.8163C149.22 79.8084 149.241 79.795 149.259 79.7773C149.277 79.7595 149.29 79.7379 149.298 79.7142C149.305 79.6905 149.307 79.6654 149.302 79.641V72.2188ZM148.2 68.1931C147.98 68.1897 147.763 68.2508 147.578 68.3684C147.393 68.486 147.248 68.6548 147.161 68.8534C147.075 69.0519 147.051 69.2712 147.092 69.4831C147.134 69.695 147.239 69.8901 147.395 70.0432C147.55 70.1964 147.749 70.3008 147.965 70.3432C148.182 70.3855 148.406 70.3638 148.61 70.2808C148.814 70.1979 148.988 70.0574 149.109 69.8774C149.231 69.6974 149.295 69.4861 149.294 69.2703C149.307 69.1262 149.289 68.9809 149.239 68.8446C149.189 68.7083 149.109 68.5845 149.005 68.4817C148.9 68.379 148.774 68.2999 148.635 68.25C148.496 68.2001 148.348 68.1807 148.2 68.1931V68.1931Z" fill="white"/>
<path d="M144.099 79.5818C144.124 79.5759 144.147 79.5653 144.167 79.5505C144.187 79.5357 144.204 79.5171 144.216 79.4958C144.229 79.4745 144.237 79.4509 144.24 79.4264C144.242 79.402 144.24 79.3772 144.233 79.3537L143.853 78.1582C143.838 78.1121 143.805 78.0736 143.762 78.0507C143.718 78.0278 143.667 78.0224 143.619 78.0357L143.079 78.2047C142.685 78.3097 142.278 78.3665 141.869 78.3736C140.473 78.3736 139.773 77.4612 139.773 75.9066C139.773 74.3521 140.435 73.4861 141.904 73.4861C142.276 73.4913 142.644 73.5526 142.997 73.6677L143.559 73.8114C143.58 73.82 143.602 73.8238 143.625 73.8228C143.648 73.8217 143.67 73.8156 143.69 73.8051C143.71 73.7945 143.727 73.7798 143.74 73.7618C143.753 73.7439 143.762 73.7233 143.766 73.7015L144.147 72.4934C144.186 72.3836 144.147 72.3033 144.013 72.2653L143.313 72.0752C142.855 71.9465 142.38 71.8811 141.904 71.8809C139.311 71.8809 137.963 73.4396 137.963 75.9278C137.963 78.4159 139.346 80 141.852 80C142.366 79.9932 142.878 79.9208 143.373 79.7846L144.099 79.5818Z" fill="white"/>
<path d="M129.644 72.2061C129.642 72.1834 129.635 72.1612 129.624 72.141C129.613 72.1208 129.598 72.1029 129.58 72.0884C129.562 72.0738 129.541 72.0629 129.519 72.0563C129.496 72.0497 129.473 72.0475 129.449 72.0499H128.628C128.503 72.0499 128.443 72.109 128.443 72.2188V79.6409C128.439 79.6656 128.441 79.6908 128.449 79.7144C128.457 79.7381 128.471 79.7596 128.489 79.7772C128.507 79.7948 128.529 79.8081 128.553 79.816C128.577 79.8238 128.603 79.8261 128.628 79.8226H130.085C130.109 79.8246 130.134 79.8212 130.158 79.8127C130.181 79.8043 130.202 79.7909 130.219 79.7735C130.237 79.7562 130.25 79.7353 130.258 79.7124C130.266 79.6894 130.269 79.6651 130.266 79.6409V75.9066C130.266 74.3479 130.966 73.4861 132.181 73.4861C133.075 73.4861 133.611 74.0986 133.611 75.104V79.6409C133.611 79.7634 133.672 79.8226 133.784 79.8226H135.253C135.366 79.8226 135.426 79.7634 135.426 79.6409V74.897C135.426 73.0088 134.298 71.8682 132.401 71.8682C131.975 71.8624 131.553 71.9475 131.164 72.1175C130.775 72.2875 130.429 72.5383 130.15 72.8525C129.964 73.0088 129.869 73.0299 129.769 72.8525L129.644 72.2061Z" fill="white"/>
<path d="M123.741 76.5065V76.6121C123.741 77.7991 123.041 78.4201 121.744 78.4201C120.958 78.4201 120.517 78.0357 120.517 77.4147C120.517 76.874 120.884 76.5065 121.692 76.5065H123.741ZM119.562 72.3033C119.537 72.308 119.514 72.3179 119.494 72.3321C119.473 72.3463 119.456 72.3646 119.443 72.3858C119.431 72.4069 119.423 72.4305 119.42 72.4549C119.417 72.4792 119.42 72.5039 119.428 72.5272L119.795 73.7142C119.798 73.7383 119.807 73.7614 119.82 73.7818C119.834 73.8022 119.852 73.8193 119.873 73.8319C119.894 73.8445 119.918 73.8523 119.943 73.8546C119.968 73.8569 119.992 73.8537 120.016 73.8452L120.616 73.6677C121.031 73.5562 121.461 73.5036 121.891 73.5114C123.101 73.5114 123.741 74.0395 123.741 75.0069V75.104H121.692C119.756 75.104 118.706 76.0714 118.706 77.5837C118.706 79.096 119.722 80 121.546 80C121.96 80.0258 122.374 79.9636 122.762 79.8178C123.149 79.6719 123.499 79.4459 123.788 79.1551C124.009 78.965 124.108 78.965 124.22 79.1805L124.354 79.6832C124.367 79.7278 124.394 79.7668 124.433 79.7931C124.472 79.8194 124.519 79.8313 124.566 79.8268H125.379C125.403 79.8288 125.428 79.8254 125.451 79.8169C125.475 79.8085 125.496 79.7951 125.513 79.7777C125.53 79.7604 125.544 79.7395 125.552 79.7166C125.56 79.6937 125.563 79.6693 125.56 79.6451V74.9477C125.56 73.0088 124.19 71.8809 121.982 71.8809C121.378 71.8756 120.777 71.9567 120.197 72.1216L119.562 72.3033Z" fill="white"/>
<path d="M116.865 72.0626C116.867 72.0386 116.864 72.0145 116.855 71.9919C116.847 71.9693 116.834 71.9488 116.817 71.9316C116.799 71.9144 116.779 71.901 116.756 71.8922C116.733 71.8835 116.708 71.8796 116.684 71.8809C116.178 71.8665 115.677 71.9747 115.224 72.1958C114.772 72.417 114.383 72.7442 114.091 73.1482C113.944 73.3045 113.871 73.2792 113.771 73.0975L113.503 72.1893C113.491 72.1454 113.464 72.1071 113.426 72.0808C113.388 72.0546 113.342 72.0422 113.296 72.0457H112.475C112.349 72.0457 112.289 72.1048 112.289 72.2146V79.6368C112.285 79.6614 112.288 79.6866 112.296 79.7102C112.304 79.7339 112.317 79.7554 112.335 79.773C112.353 79.7906 112.375 79.8039 112.4 79.8118C112.424 79.8197 112.449 79.8219 112.475 79.8184H113.931C113.956 79.8211 113.981 79.8182 114.005 79.81C114.029 79.8018 114.051 79.7886 114.068 79.7711C114.086 79.7537 114.1 79.7326 114.108 79.7093C114.117 79.686 114.12 79.6613 114.117 79.6368V77.7316C114.117 74.7746 114.899 73.5664 116.71 73.4819C116.734 73.4846 116.759 73.4819 116.782 73.4739C116.806 73.4659 116.827 73.453 116.844 73.4359C116.862 73.4189 116.875 73.3982 116.883 73.3755C116.891 73.3527 116.894 73.3285 116.891 73.3045L116.865 72.0626Z" fill="white"/>
<path d="M103.992 73.7143V70.2503H109.389C109.437 70.2553 109.486 70.2436 109.526 70.2174C109.566 70.1912 109.596 70.152 109.61 70.1067L109.964 68.8394C109.973 68.8159 109.976 68.7903 109.972 68.7652C109.969 68.7402 109.958 68.7166 109.942 68.6969C109.926 68.6772 109.904 68.662 109.88 68.6529C109.856 68.6438 109.83 68.6411 109.804 68.6451H102.328C102.303 68.6424 102.278 68.6453 102.254 68.6535C102.23 68.6617 102.208 68.6749 102.191 68.6924C102.173 68.7098 102.159 68.7309 102.151 68.7542C102.142 68.7774 102.139 68.8022 102.142 68.8267V79.6748C102.139 79.6994 102.141 79.7246 102.149 79.7483C102.157 79.7719 102.171 79.7934 102.189 79.811C102.207 79.8287 102.229 79.8419 102.253 79.8498C102.277 79.8577 102.303 79.8599 102.328 79.8564H103.819C103.931 79.8564 103.992 79.7973 103.992 79.6748V75.3195H108.672C108.78 75.3195 108.845 75.2604 108.845 75.1379V73.8706C108.845 73.7481 108.78 73.6889 108.672 73.6889L103.992 73.7143Z" fill="white"/>
<path fill-rule="evenodd" clip-rule="evenodd" d="M39.5716 43.5145L46.3434 32.054L39.5716 20.5977H26.0325L19.2607 32.054L26.0325 43.5145H39.5716Z" fill="white"/>
<path fill-rule="evenodd" clip-rule="evenodd" d="M4.11834 47.6122C1.54347 43.0748 0.133782 37.9942 0.0103361 32.8069C-0.11311 27.6195 1.05337 22.4804 3.40961 17.8308L18.7206 26.93L17.5927 29.228L16.8105 27.9016L13.2712 29.9841L18.6125 37.5879L4.11834 47.6122Z" fill="white"/>
<path fill-rule="evenodd" clip-rule="evenodd" d="M32.2467 64.1124C26.9402 64.0203 21.7355 62.6726 17.0784 60.1844C12.4212 57.6963 8.45024 54.142 5.50549 49.8258L21.2313 41.4067L22.7136 43.5189H21.1362L21.2227 47.5531L30.6391 46.835L32.2467 64.1124Z" fill="white"/>
<path fill-rule="evenodd" clip-rule="evenodd" d="M60.924 48.5457C58.1951 52.9987 54.3997 56.7366 49.8647 59.4373C45.3297 62.138 40.1911 63.7207 34.8915 64.0489L35.2934 46.5307L37.8863 46.3279L37.1041 47.6713L40.7168 49.6229L44.7963 41.2883L60.924 48.5457Z" fill="white"/>
<path fill-rule="evenodd" clip-rule="evenodd" d="M61.4858 16.4875C64.0619 21.0272 65.4711 26.1107 65.5923 31.3007C65.7135 36.4907 64.543 41.6318 62.1815 46.2816L46.8835 37.1824L47.9985 34.8675L48.7937 36.2109L52.3243 34.1283L46.9959 26.4992L61.4858 16.4875Z" fill="white"/>
<path fill-rule="evenodd" clip-rule="evenodd" d="M33.3617 0C38.6729 0.0840191 43.8836 1.4282 48.5456 3.91687C53.2076 6.40555 57.1812 9.9642 60.1245 14.2866L44.4074 22.693L42.9251 20.5808H44.5024L44.4203 16.5424L34.9995 17.2521L33.3617 0Z" fill="white"/>
<path fill-rule="evenodd" clip-rule="evenodd" d="M4.68445 15.5538C7.4151 11.1039 11.2105 7.36886 15.7444 4.66982C20.2782 1.97078 25.4149 0.388513 30.7126 0.059082L30.2805 17.5646L27.6876 17.7716L28.4698 16.441L24.87 14.4893L20.7992 22.8112L4.68445 15.5538Z" fill="white"/>
</g>
<defs>
<clipPath id="clip0_13_35">
<rect width="196" height="80" fill="white"/>
</clipPath>
</defs>
</svg>
