<svg xmlns="http://www.w3.org/2000/svg" width="32" height="32" fill="none" xmlns:v="https://vecta.io/nano"><g clip-path="url(#B)"><path fill-rule="evenodd" d="M16 0C12.198-.004 8.518 1.381 5.621 3.906S.799 9.932.19 13.781.329 21.575 2.299 24.91s5.034 5.841 8.642 7.07c.796.151 1.09-.363 1.09-.796v-2.79c-4.449 1.007-5.392-2.196-5.392-2.196a4.38 4.38 0 0 0-1.778-2.407c-1.444-1.007.118-1.007.118-1.007a3.32 3.32 0 0 1 1.413.557c.424.293.777.681 1.033 1.135.217.404.51.76.862 1.048a3.39 3.39 0 0 0 1.188.629c.433.127.885.166 1.332.113a3.36 3.36 0 0 0 1.273-.42c.062-.829.41-1.607.982-2.196-3.556-.413-7.288-1.823-7.288-8.108-.024-1.629.563-3.205 1.64-4.402-.481-1.416-.425-2.966.157-4.341 0 0 1.346-.443 4.4 1.682 2.623-.739 5.392-.739 8.015 0 3.055-2.125 4.39-1.682 4.39-1.682.588 1.374.648 2.924.167 4.341 1.077 1.197 1.665 2.773 1.64 4.402 0 6.305-3.742 7.685-7.308 8.058a3.89 3.89 0 0 1 .866 1.389 3.97 3.97 0 0 1 .225 1.632v4.502c0 .534.285.947 1.1.796 3.597-1.24 6.648-3.751 8.607-7.083a16.77 16.77 0 0 0 2.093-11.112c-.609-3.841-2.528-7.336-5.416-9.861S19.795-.052 16-.061V0z" fill="url(#A)"/></g><defs><linearGradient id="A" x1="15.98" y1="-.061" x2="15.98" y2="32.007" gradientUnits="userSpaceOnUse"><stop stop-color="#23b5d3"/><stop offset="1" stop-color="#2094ac"/></linearGradient><clipPath id="B"><path fill="#fff" d="M0 0h32v32H0z"/></clipPath></defs></svg>