<svg xmlns="http://www.w3.org/2000/svg" width="32" height="32" fill="none" xmlns:v="https://vecta.io/nano"><g clip-path="url(#B)"><path d="M16 0L9.406.096C7.7.176 6.538.444 5.52.84c-1.068.402-2.035 1.032-2.834 1.846C1.872 3.485 1.242 4.452.84 5.52.444 6.536.174 7.7.096 9.4L0 16.002l.096 6.594c.08 1.704.348 2.866.744 3.884.41 1.052.956 1.944 1.846 2.834s1.78 1.438 2.832 1.846c1.02.396 2.18.666 3.884.744L16 32l6.596-.096c1.702-.08 2.868-.348 3.886-.744a7.83 7.83 0 0 0 2.832-1.846c.89-.89 1.436-1.782 1.846-2.834.394-1.018.664-2.18.744-3.884L32 16l-.096-6.598c-.08-1.702-.35-2.866-.744-3.882-.402-1.068-1.032-2.035-1.846-2.834A7.82 7.82 0 0 0 26.48.84C25.46.444 24.296.174 22.594.096L15.996 0h.006H16zm-1.434 2.884h1.436l6.464.092c1.56.07 2.408.332 2.972.55.746.29 1.28.638 1.84 1.198a4.94 4.94 0 0 1 1.196 1.84c.22.562.48 1.41.55 2.97l.094 6.462-.094 6.464c-.07 1.56-.332 2.406-.55 2.97a4.94 4.94 0 0 1-1.198 1.838 4.94 4.94 0 0 1-1.84 1.196c-.56.22-1.408.48-2.97.552l-6.464.094c-4.272 0-4.78-.018-6.466-.094-1.56-.072-2.406-.332-2.97-.552-.695-.256-1.324-.665-1.84-1.196a4.96 4.96 0 0 1-1.2-1.84c-.218-.562-.48-1.41-.55-2.97l-.092-6.466.092-6.462c.072-1.56.332-2.408.552-2.972.29-.746.638-1.28 1.198-1.84a4.94 4.94 0 0 1 1.84-1.196c.564-.22 1.41-.48 2.97-.552l5.03-.09v.004zm9.976 2.656a1.92 1.92 0 0 0-1.358.562 1.92 1.92 0 0 0-.562 1.358 1.92 1.92 0 0 0 .562 1.358 1.92 1.92 0 0 0 1.358.562 1.92 1.92 0 0 0 1.92-1.92 1.92 1.92 0 0 0-1.92-1.92zm-8.54 2.244a8.22 8.22 0 0 0-5.894 2.361 8.22 8.22 0 0 0-2.452 5.856 8.22 8.22 0 0 0 2.452 5.856c.777.765 1.698 1.367 2.71 1.773a8.22 8.22 0 0 0 8.912-1.863 8.22 8.22 0 0 0 0-11.531 8.22 8.22 0 0 0-5.728-2.452zm0 2.882c1.415 0 2.771.562 3.772 1.562s1.562 2.357 1.562 3.772-.562 2.771-1.562 3.772-2.357 1.562-3.772 1.562-2.771-.562-3.772-1.562-1.562-2.357-1.562-3.772.562-2.771 1.562-3.772 2.357-1.562 3.772-1.562z" fill="url(#A)"/></g><defs><linearGradient id="A" x1="16" y1="0" x2="16" y2="32" gradientUnits="userSpaceOnUse"><stop stop-color="#23b5d3"/><stop offset="1" stop-color="#2094ac"/></linearGradient><clipPath id="B"><path fill="#fff" d="M0 0h32v32H0z"/></clipPath></defs></svg>