<svg xmlns="http://www.w3.org/2000/svg" xmlns:xlink="http://www.w3.org/1999/xlink" width="639" height="214" fill="none" xmlns:v="https://vecta.io/nano"><g fill="#fff"><path d="M5.016 214v-21.256h3.682v17.837h9.417V214h-13.1zm14.849-.739l6.429-20.517h5.735l6.399 20.517-.453.739h-3.109l-1.419-4.682h-8.603L23.397 214h-3.049l-.483-.739zm6.007-7.363h6.58l-3.018-9.735h-.574l-2.988 9.735zM42.03 214v-21.256h9.719c3.28 0 4.92 1.674 4.92 5.021v1.941c0 .698-.201 1.294-.604 1.787l-1.056 1.294 1.268 1.078c.664.554.996 1.376.996 2.464v2.65c0 3.347-1.64 5.021-4.92 5.021H42.03zm3.683-3.419h6.55c.885 0 1.328-.442 1.328-1.325v-3.235c0-.883-.443-1.324-1.328-1.324h-6.55v5.884zm0-9.304h5.946c.885 0 1.328-.452 1.328-1.355v-2.434c0-.883-.443-1.325-1.328-1.325h-5.946v5.114zM61.663 214v-4.005h3.924V214h-3.924zm16.774 0v-21.256h7.999c5.433 0 8.15 2.783 8.15 8.348v4.56c0 5.565-2.717 8.348-8.15 8.348h-7.999zm3.683-3.419h4.528c2.837 0 4.256-1.448 4.256-4.344v-5.73c0-2.896-1.419-4.344-4.256-4.344H82.12v14.418zM99.553 214v-21.256h14.005v3.419h-10.323v5.114h9.418v3.42h-9.418v5.884h10.323V214H99.553z"/><use xlink:href="#B"/><path d="M144.301 214v-21.256h3.682v17.837h9.418V214h-13.1z"/><use xlink:href="#B" x="35.364"/><path d="M177.824 196.163v-3.419h16.812v3.419h-6.55V214h-3.712v-17.837h-6.55zM198.393 214v-21.256h10.021c3.28 0 4.92 1.674 4.92 5.021v3.481c0 2.588-1.006 4.159-3.018 4.714l3.622 7.239-.453.801h-3.139l-3.863-7.763h-4.407V214h-3.683zm3.683-11.183h6.248c.885 0 1.328-.451 1.328-1.355v-3.974c0-.883-.443-1.325-1.328-1.325h-6.248v6.654zm15.923 6.162v-11.214c0-3.347 1.64-5.021 4.92-5.021h6.912c3.28 0 4.92 1.674 4.92 5.021v11.214c0 3.347-1.64 5.021-4.92 5.021h-6.912c-3.28 0-4.92-1.674-4.92-5.021zm3.682.277c0 .883.443 1.325 1.328 1.325h6.732c.885 0 1.328-.442 1.328-1.325v-11.768c0-.883-.443-1.325-1.328-1.325h-6.732c-.885 0-1.328.442-1.328 1.325v11.768zm.151-19.593l4.558-4.528 4.528 4.528-1.57 1.664-2.958-2.865-2.988 2.865-1.57-1.664zM240.036 214v-21.256h4.014l9.237 15.156v-15.156h3.682V214h-3.984l-9.267-15.156V214h-3.682zm22.531 0v-21.256h3.682V214h-3.682zm8.964-5.021v-11.214c0-3.347 1.64-5.021 4.92-5.021h8.21l1.781 1.417v2.002h-9.9c-.886 0-1.328.442-1.328 1.325v11.768c0 .883.442 1.325 1.328 1.325h9.9v2.002L284.661 214h-8.21c-3.28 0-4.92-1.674-4.92-5.021zm17.451 4.282l6.429-20.517h5.735l6.399 20.517-.452.739h-3.109l-1.419-4.682h-8.603L292.514 214h-3.049l-.483-.739zm6.007-7.363h6.58l-3.019-9.735h-.573l-2.988 9.735z"/><use xlink:href="#C"/><path d="M345.077 214v-21.256h7.999c5.433 0 8.15 2.783 8.15 8.348v4.56c0 5.565-2.717 8.348-8.15 8.348h-7.999zm3.683-3.419h4.527c2.838 0 4.256-1.448 4.256-4.344v-5.73c0-2.896-1.418-4.344-4.256-4.344h-4.527v14.418z"/><use xlink:href="#C" x="47.342"/><path d="M383.81 212.583v-2.002h9.327c.885 0 1.328-.442 1.328-1.325v-2.341c0-.781-.342-1.243-1.026-1.387l-6.128-1.263c-2.334-.472-3.501-2.074-3.501-4.805v-1.695c0-3.347 1.64-5.021 4.92-5.021h7.033l1.781 1.417v2.002h-8.724c-.885 0-1.328.442-1.328 1.325v2.064c0 .78.342 1.243 1.027 1.386l6.127 1.233c2.334.492 3.501 2.094 3.501 4.805v2.003c0 3.347-1.64 5.021-4.92 5.021h-7.636l-1.781-1.417z"/><use xlink:href="#B" x="277.046"/><path d="M421.347 214v-21.256h4.014l9.237 15.156v-15.156h3.682V214h-3.984l-9.267-15.156V214h-3.682zm20.539-20.517l.482-.739h3.2l5.162 17.837h.573l5.162-17.837h3.229l.453.739L453.989 214h-5.976l-6.127-20.517zm21.538 15.496v-11.214c0-3.347 1.64-5.021 4.92-5.021h6.913c3.28 0 4.92 1.674 4.92 5.021v11.214c0 3.347-1.64 5.021-4.92 5.021h-6.913c-3.28 0-4.92-1.674-4.92-5.021zm3.683.277c0 .883.443 1.325 1.328 1.325h6.731c.885 0 1.328-.442 1.328-1.325v-11.768c0-.883-.443-1.325-1.328-1.325h-6.731c-.885 0-1.328.442-1.328 1.325v11.768zM485.461 214v-21.256h3.683v17.837h9.417V214h-13.1zm13.052-20.517l.483-.739h3.199l5.162 17.837h.573l5.162-17.837h3.23l.452.739L510.617 214h-5.977l-6.127-20.517zM520.354 214v-21.256h3.682V214h-3.682zm9.266 0v-21.256h4.528l6.248 13.616 6.248-13.616h4.528V214h-3.713v-14.848l-5.494 11.952h-3.169l-5.494-11.952V214h-3.682z"/><use xlink:href="#C" x="237.898"/><path d="M575.271 214v-21.256h4.015l9.236 15.156v-15.156h3.683V214h-3.985l-9.266-15.156V214h-3.683zm20.69-17.837v-3.419h16.813v3.419h-6.55V214h-3.713v-17.837h-6.55zm20.268 12.816v-11.214c0-3.347 1.64-5.021 4.92-5.021h6.912c3.28 0 4.92 1.674 4.92 5.021v11.214c0 3.347-1.64 5.021-4.92 5.021h-6.912c-3.28 0-4.92-1.674-4.92-5.021zm3.682.277c0 .883.443 1.325 1.328 1.325h6.732c.885 0 1.328-.442 1.328-1.325v-11.768c0-.883-.443-1.325-1.328-1.325h-6.732c-.885 0-1.328.442-1.328 1.325v11.768z"/></g><g clip-path="url(#A)"><g fill="#fff"><path d="M136.58 159.256H0V20.333h39.23v98.93h68.849l28.501 39.993zm445.987-39.993c-.652.053-1.308.053-1.961 0h1.961zm-116.866-.21l28.952 40.203H355.915V24.543H465.76l28.952 40.203h-90.916c-2.048-.04-4.03.78-5.522 2.287s-2.375 3.579-2.461 5.775v2.105c.091 2.192.977 4.26 2.468 5.762s3.47 2.32 5.515 2.279h76.773l14.476 20.101h-91.289c-2.044-.04-4.023.777-5.514 2.279s-2.377 3.57-2.469 5.762c.087 2.196.97 4.269 2.462 5.775s3.473 2.327 5.521 2.287l61.945-.105zm-118.514 5.472v1.053c-.255 9.023-3.775 17.586-9.813 23.873s-14.12 9.803-22.533 9.805H187.54l-22.009-33.215-1.353-2.105-36.053-54.369-25.028 37.719H55.158l49.037-73.839c2.721-4.097 6.315-7.437 10.483-9.741s8.788-3.507 13.477-3.507 9.309 1.202 13.477 3.507 7.762 5.644 10.483 9.741l34.973 52.622 3.002 4.505 15.927 24.038v.442h.196l5.237 7.915 1.727 2.61h86.933c2.601 0 5.096-1.109 6.935-3.083s2.873-4.651 2.873-7.442-1.033-5.468-2.873-7.442-4.334-3.082-6.935-3.082h-78.009l8.788-14.734 6.277-10.524h59.021a9.23 9.23 0 0 0 3.757-.795 9.78 9.78 0 0 0 3.187-2.278 10.6 10.6 0 0 0 2.123-3.42c.491-1.279.743-2.648.741-4.032 0-2.791-1.033-5.468-2.873-7.442s-4.334-3.082-6.935-3.082h-46.448l20.125-33.678h42.996c8.064 0 15.797 3.437 21.499 9.556s8.905 14.417 8.905 23.07-3.204 16.951-8.905 23.07-13.435 9.556-21.499 9.556h1.962c7.045.004 13.896 2.472 19.517 7.03s9.704 10.957 11.631 18.228c.806 3.083 1.215 6.27 1.217 9.472h0z"/><path d="M206.154 115.054h-.196v-.274l.196.274z"/></g><path d="M205.958 0h34.17l-14.555 22.438h26.657l-44.31 75.776 7.846-49.107h-28.599L205.958 0z" fill="#23b5d3"/><path d="M639 93.204c0 20.607-6.139 38.688-17.202 51.402-2.862 3.307-6.067 6.252-9.553 8.777-3.268 2.373-6.775 4.343-10.455 5.873h-94.152l-29.03-39.993h103.96c13.73 0 20.909-12.629 20.909-27.869 0-16.839-9.16-28.1-22.792-28.1h-28.403l.863 45.445h-37.269l.412-88.406h64.318c33.346 0 58.394 31.321 58.394 72.871z" fill="#fff"/></g><defs><clipPath id="A"><path fill="#fff" d="M0 0h639v159.256H0z"/></clipPath><path id="B" d="M125.779 214v-21.256h14.005v3.419h-10.323v5.114h9.418v3.42h-9.418v5.884h10.323V214h-14.005z"/><path id="C" d="M318.851 214v-21.256h14.006v3.419h-10.323v5.114h9.417v3.42h-9.417v5.884h10.323V214h-14.006z"/></defs></svg>