<svg xmlns="http://www.w3.org/2000/svg" width="196" height="80" fill="none" xmlns:v="https://vecta.io/nano"><g clip-path="url(#A)" fill="#fff"><path d="M127.509 25.819v9.686h15.951v9.615h-15.951v19.229h-9.775v-48.09h31.629v9.56h-21.854zm27.943-9.56h4.287l26.559 28.383V16.259H196v48.09h-4.36l-26.487-28.307v28.307h-9.701v-48.09zM92.536 64.336a20.67 20.67 0 0 1-7.731-1.398 17.83 17.83 0 0 1-6.016-3.844 17.65 17.65 0 0 1-3.889-5.846 19.46 19.46 0 0 1-1.409-7.481V16.259h9.702v28.303a11.59 11.59 0 0 0 .769 4.321c.466 1.209 1.17 2.315 2.074 3.257a9.18 9.18 0 0 0 2.986 2.049 9.1 9.1 0 0 0 7.031 0c1.125-.484 2.141-1.18 2.99-2.049a9.77 9.77 0 0 0 2.07-3.257c.531-1.381.793-2.846.773-4.321V16.259h9.762v29.519a19.27 19.27 0 0 1-1.396 7.481c-.883 2.193-2.222 4.184-3.932 5.846-1.73 1.669-3.788 2.976-6.05 3.844a20.69 20.69 0 0 1-7.736 1.386h0zM7.697 69.667c.002-.018 0-.036-.006-.052s-.016-.032-.029-.045-.028-.022-.046-.028-.036-.008-.054-.006h-.735c-.018-.002-.036 0-.054.006s-.033.016-.046.028-.023.028-.029.045-.008.035-.006.052v6.024c0 2.036-1.041 3.219-2.843 3.219S.994 77.727.994 75.691v-6.024c.002-.018 0-.036-.006-.052s-.016-.032-.029-.045-.028-.022-.046-.028-.036-.008-.054-.006H.138c-.018-.002-.036 0-.054.006s-.033.016-.046.028-.023.028-.029.045-.008.035-.006.052v6.024c0 2.598 1.422 4.131 3.846 4.131s3.846-1.534 3.846-4.131v-6.024zm4.028 3.075a.12.12 0 0 0-.008-.053c-.007-.017-.017-.032-.03-.044s-.029-.022-.046-.028-.036-.008-.054-.006h-.462c-.099 0-.147.051-.147.131v6.801c0 .08.048.131.147.131h.696c.018.003.037.002.055-.004s.034-.015.047-.028.023-.028.029-.046.007-.035.004-.053v-3.236c0-1.867.886-2.957 2.377-2.957 1.115 0 1.776.765 1.776 2.049v4.144a.12.12 0 0 0 .008.053c.007.017.017.032.03.044s.029.022.046.028.036.008.054.006h.709c.018.002.036 0 .054-.006s.033-.016.046-.028.023-.028.029-.045.008-.035.006-.052V75.32c0-1.774-1.016-2.864-2.671-2.864a2.84 2.84 0 0 0-1.363.288c-.422.207-.783.517-1.049.898-.086.118-.186.118-.22 0l-.06-.9zm9.248-3.565a.68.68 0 0 0-.379.1.66.66 0 0 0-.256.291.64.64 0 0 0-.046.381.65.65 0 0 0 .181.341.68.68 0 0 0 .345.183.69.69 0 0 0 .391-.037c.124-.05.229-.135.302-.245s.112-.237.11-.368a.58.58 0 0 0-.168-.473.6.6 0 0 0-.22-.139.62.62 0 0 0-.26-.035h0zm.648 3.565c.002-.018 0-.036-.006-.052s-.016-.032-.029-.045-.029-.022-.046-.028-.035-.008-.054-.006h-1.551c-.018-.002-.037 0-.054.006s-.033.015-.046.028-.023.028-.03.044a.12.12 0 0 0-.008.053v.612a.12.12 0 0 0 .008.053c.006.017.017.032.03.044s.029.022.046.028.036.008.054.006h.696v6.058c-.002.018 0 .036.006.052s.016.032.029.045.029.022.046.028.036.008.054.006h.713c.018.002.036 0 .054-.006s.033-.016.046-.028.023-.028.029-.045.008-.035.006-.052l.009-6.801zm9.55.042c.048-.11 0-.169-.099-.169h-.765c-.034-.002-.067.008-.094.028s-.046.049-.053.081l-1.703 3.7a9.09 9.09 0 0 0-.601 1.77c-.052.131-.173.131-.212 0a10.98 10.98 0 0 0-.609-1.77l-1.703-3.7c-.008-.032-.027-.06-.053-.08a.15.15 0 0 0-.093-.029h-.748c-.112 0-.16.059-.112.169l1.962 4.262a19.07 19.07 0 0 1 .907 2.513.12.12 0 0 0 .014.05.13.13 0 0 0 .033.041c.014.011.03.02.047.025s.035.007.053.005h.808c.038.003.075-.008.104-.031s.049-.055.056-.091c.247-.854.544-1.693.89-2.513l1.971-4.262zm7.584 6.683c.018-.001.036-.007.052-.016s.029-.022.038-.038.015-.033.016-.051-.003-.036-.011-.052l-.169-.587c-.01-.038-.035-.071-.07-.092s-.076-.027-.116-.018l-.454.135a4.7 4.7 0 0 1-1.396.19c-1.236 0-2.057-.718-2.251-1.964l2.939-.465c1.357-.22 2.023-.845 2.023-1.859 0-1.377-1.033-2.18-2.736-2.18-2.044 0-3.293 1.415-3.293 3.667s1.236 3.688 3.319 3.688a5.33 5.33 0 0 0 1.629-.228l.48-.131zm-4.429-3.303c.052-1.892.895-2.813 2.295-2.813 1.115 0 1.763.477 1.763 1.305 0 .562-.406.9-1.201 1.031l-2.856.477zm11.538-3.565c0-.093-.039-.131-.138-.131-.501 0-.992.131-1.423.38s-.786.606-1.027 1.035c-.082.118-.169.084-.194-.038l-.108-1.103c-.002-.036-.019-.07-.046-.095s-.064-.037-.101-.036h-.467c-.099 0-.147.051-.147.131v6.801c0 .08.047.131.147.131h.696c.019.003.037.001.055-.004s.034-.015.047-.028.024-.028.03-.045.008-.036.006-.054v-2.302c0-2.488.929-3.802 2.532-3.891.099 0 .138-.046.138-.131v-.621zm5.916 4.098c.696.203 1.015.528 1.015 1.077 0 .718-.648 1.162-1.763 1.162a6.2 6.2 0 0 1-2.01-.3l-.393-.131c-.016-.007-.033-.011-.051-.011s-.035.005-.051.013-.029.02-.039.034-.017.031-.019.048l-.22.587c-.007.018-.011.037-.009.057s.007.038.016.055.023.032.039.043.034.019.054.023l.406.131a6.92 6.92 0 0 0 2.277.338c1.729 0 2.744-.769 2.744-2.049 0-.959-.514-1.58-1.69-1.867l-1.755-.49c-.674-.194-.968-.515-.968-1.031 0-.625.588-1.031 1.616-1.031a5.8 5.8 0 0 1 1.508.19l.575.156c.087.038.147 0 .186-.084l.16-.575c.01-.017.016-.035.017-.055s-.003-.039-.012-.056a.12.12 0 0 0-.037-.044c-.016-.011-.035-.019-.054-.022l-.588-.182c-.575-.149-1.168-.221-1.763-.215-1.629 0-2.593.718-2.593 1.918 0 .967.519 1.542 1.634 1.821l1.767.49zm5.497-7.519a.68.68 0 0 0-.368.119.66.66 0 0 0-.239.298.64.64 0 0 0-.03.377.65.65 0 0 0 .188.331c.095.09.214.15.344.174s.264.009.385-.042.225-.135.297-.243.11-.234.11-.363c.009-.086-.001-.174-.03-.256s-.077-.157-.139-.218a.6.6 0 0 0-.222-.139.61.61 0 0 0-.261-.033l-.035-.004zm.687 3.565c.001-.017-.001-.035-.008-.052a.13.13 0 0 0-.029-.044c-.013-.013-.028-.022-.045-.028a.12.12 0 0 0-.053-.007h-1.547c-.018-.002-.036 0-.054.006s-.033.016-.046.028-.023.028-.029.045-.008.035-.006.052v.612c-.002.018 0 .036.006.053a.12.12 0 0 0 .029.045c.013.013.029.022.046.028s.036.008.054.006h.7v6.058c-.003.018-.002.036.004.053s.016.033.029.046.029.022.047.028.036.007.055.004h.713c.018.001.036-.001.053-.007s.032-.016.045-.028.023-.027.029-.044.009-.034.008-.052v-6.801zm9.257-3.337c0-.097-.039-.144-.138-.144H66.4c-.02-.003-.04-.001-.059.005a.13.13 0 0 0-.051.031c-.014.014-.025.031-.031.05s-.008.039-.005.058v3.637l-.467-.215a3.79 3.79 0 0 0-1.728-.346c-2.036 0-3.258 1.377-3.258 3.667s1.162 3.688 3.073 3.688a2.82 2.82 0 0 0 1.311-.309 2.75 2.75 0 0 0 1.006-.878c.099-.144.199-.106.207.025l.065.887c.001.018.005.036.013.052s.019.031.033.043a.15.15 0 0 0 .047.028.14.14 0 0 0 .055.007h.462c.018.003.037.001.055-.004s.034-.015.047-.028.023-.028.03-.045a.11.11 0 0 0 .006-.054l.013-10.155zm-.968 4.562v2.036c0 1.664-.748 2.957-2.256 2.957-1.37 0-2.191-1.064-2.204-2.801s.864-2.767 2.303-2.78a3.25 3.25 0 0 1 1.543.325l.614.262zm4.52-1.103c-.02.003-.038.01-.054.022a.12.12 0 0 0-.049.1c.001.019.007.038.017.055l.16.579c.006.018.015.034.027.047s.028.025.045.032.036.012.055.012a.15.15 0 0 0 .055-.011l.527-.144c.445-.126.907-.186 1.37-.177 1.296 0 2.022.718 2.022 1.977v.19h-2.29c-1.729 0-2.658.887-2.658 2.167s.895 2.112 2.411 2.112c1.115 0 1.888-.325 2.403-.959.147-.169.255-.182.307 0l.035.672c.026.08.061.131.16.131h.467c.018.002.036 0 .054-.006a.12.12 0 0 0 .075-.073c.006-.017.008-.035.006-.052v-4.22c0-1.787-1.154-2.864-2.99-2.864a5.6 5.6 0 0 0-1.603.215l-.549.194zm4.175 3.506v.194c0 1.533-.895 2.395-2.437 2.395-.968 0-1.517-.482-1.517-1.305s.536-1.267 1.677-1.267l2.277-.017zm10.121-6.966c0-.097-.039-.144-.138-.144h-.683c-.099 0-.138.047-.138.144v3.637l-.475-.215a3.78 3.78 0 0 0-1.729-.346c-2.031 0-3.258 1.377-3.258 3.667s1.163 3.688 3.077 3.688a2.82 2.82 0 0 0 1.308-.31 2.75 2.75 0 0 0 1.004-.877c.099-.144.199-.106.212.025l.078.87c.001.018.005.036.013.052s.019.031.032.043a.14.14 0 0 0 .102.035h.462c.019.003.037.001.055-.004s.034-.015.047-.028.024-.028.03-.045.008-.036.006-.054l-.004-10.138zm-.959 4.562v2.036c0 1.664-.756 2.957-2.264 2.957-1.37 0-2.191-1.064-2.204-2.801s.864-2.767 2.316-2.78c.53-.018 1.056.094 1.53.325l.622.262zm9.261 5.492c.019 0 .037-.005.053-.014s.03-.022.04-.037.016-.033.017-.051-.002-.037-.01-.053l-.173-.587c-.009-.038-.033-.071-.068-.092s-.075-.027-.114-.018l-.454.135a4.79 4.79 0 0 1-1.409.19c-1.223 0-2.044-.718-2.243-1.964l2.943-.465c1.357-.22 2.018-.845 2.018-1.859 0-1.377-1.029-2.18-2.731-2.18-2.044 0-3.293 1.415-3.293 3.667s1.236 3.688 3.306 3.688a5.19 5.19 0 0 0 1.629-.228l.488-.131zm-4.434-3.295c.052-1.892.895-2.813 2.29-2.813 1.115 0 1.767.477 1.767 1.305 0 .562-.406.9-1.201 1.031l-2.856.477zm105.261.342v.106c0 1.187-.709 1.808-2.005 1.808-.787 0-1.228-.384-1.228-1.005 0-.541.381-.908 1.176-.908h2.057zm-4.188-4.203c-.024.004-.047.014-.068.028a.15.15 0 0 0-.048.055c-.012.022-.018.045-.019.07s.004.049.014.071l.355 1.187c.005.025.015.048.03.068a.17.17 0 0 0 .056.05c.022.012.046.02.072.022s.051-.001.075-.009l.588-.178a4.66 4.66 0 0 1 1.296-.156c1.21 0 1.859.528 1.859 1.495v.097h-2.057c-1.936 0-2.978.967-2.978 2.48S190.205 80 192.016 80a2.98 2.98 0 0 0 1.221-.184 2.92 2.92 0 0 0 1.034-.661c.208-.19.307-.19.402.025l.139.503c.012.044.039.082.077.108a.2.2 0 0 0 .13.035h.821c.025.004.051.002.075-.006s.046-.021.064-.039a.17.17 0 0 0 .038-.063c.007-.024.009-.049.005-.073v-4.697c0-1.939-1.362-3.067-3.579-3.067a6.4 6.4 0 0 0-1.784.241l-.649.182zm-10.142-.097c-.002-.023-.009-.045-.02-.065s-.026-.038-.044-.053-.039-.025-.061-.032a.18.18 0 0 0-.069-.006h-.822c-.125 0-.185.059-.185.169v7.422a.15.15 0 0 0 .006.073c.008.023.022.045.04.063s.04.031.064.039a.17.17 0 0 0 .075.007h1.457c.025.002.049-.001.073-.01s.044-.022.061-.039.031-.038.039-.061.011-.047.008-.072v-3.734c0-1.559.7-2.421 1.915-2.421.894 0 1.43.613 1.43 1.618v4.537c0 .123.065.182.173.182h1.469c.113 0 .173-.059.173-.182v-4.744c0-1.888-1.128-3.029-3.025-3.029a2.99 2.99 0 0 0-1.237.249 2.92 2.92 0 0 0-1.014.735c-.186.156-.281.177-.381 0l-.125-.646zm-5.903 4.301v.106c0 1.187-.7 1.808-1.997 1.808-.786 0-1.227-.384-1.227-1.005 0-.541.367-.908 1.175-.908h2.049zm-4.179-4.203a.18.18 0 0 0-.068.029c-.02.014-.038.033-.051.054s-.02.045-.023.069a.16.16 0 0 0 .008.072l.367 1.187c.004.025.014.049.029.069s.034.038.056.051.047.02.073.022.052-.002.076-.011l.587-.177c.422-.114.859-.166 1.297-.156 1.21 0 1.849.528 1.849 1.495v.097h-2.048c-1.936 0-2.986.967-2.986 2.48S169.967 80 171.791 80c.414.026.829-.036 1.216-.182a2.88 2.88 0 0 0 1.027-.663c.22-.19.32-.19.432.025l.138.503a.19.19 0 0 0 .076.111c.038.026.085.038.132.033h.821c.025.002.05-.001.073-.01s.044-.022.061-.039.031-.038.039-.061.011-.047.008-.071v-4.697c0-1.939-1.357-3.067-3.578-3.067-.603-.005-1.205.076-1.785.241l-.665.182zm-3.111 7.278c.025-.003.05-.012.072-.026s.04-.033.053-.055.02-.047.022-.072-.003-.051-.014-.074l-.38-1.196c-.007-.023-.018-.045-.034-.063s-.034-.034-.056-.046-.046-.019-.07-.021a.19.19 0 0 0-.073.007l-.536.169a5.02 5.02 0 0 1-1.214.169c-1.396 0-2.096-.912-2.096-2.467s.674-2.421 2.135-2.421a3.67 3.67 0 0 1 1.089.182l.561.144c.021.009.044.014.067.013a.16.16 0 0 0 .065-.017c.02-.01.038-.026.051-.044a.14.14 0 0 0 .025-.062l.38-1.208c.039-.11 0-.19-.134-.228l-.696-.19c-.458-.129-.932-.195-1.408-.194-2.593 0-3.933 1.559-3.933 4.047S161.921 80 164.44 80a6.05 6.05 0 0 0 1.521-.215l.714-.203zm-10.878-2.788c.541.152.77.393.77.79 0 .49-.463.79-1.262.79a9.07 9.07 0 0 1-2.105-.266l-.588-.165c-.021-.007-.044-.009-.067-.007a.16.16 0 0 0-.064.02c-.02.011-.036.026-.049.044a.14.14 0 0 0-.027.061l-.38 1.195c-.01.023-.015.049-.013.074s.009.05.022.072.031.041.052.055.047.023.073.026l.635.182c.818.22 1.662.332 2.511.334 1.936 0 3.077-.921 3.077-2.416 0-1.162-.636-1.88-2.057-2.239l-1.643-.422c-.514-.144-.734-.372-.734-.743s.432-.706 1.188-.706c.536.001 1.07.067 1.59.194l.726.19c.023.009.048.013.073.012s.049-.008.07-.019.041-.027.056-.046a.17.17 0 0 0 .031-.065l.345-1.212c.008-.024.011-.048.008-.073a.16.16 0 0 0-.023-.07c-.013-.022-.03-.04-.05-.055s-.044-.025-.069-.03l-.726-.165a8.33 8.33 0 0 0-2.031-.266c-1.901 0-3.025.874-3.025 2.311 0 1.153.64 1.846 2.01 2.18l1.676.435zm-6.495-4.575c.002-.023-.001-.047-.009-.069s-.022-.042-.04-.058-.038-.028-.061-.036-.047-.009-.071-.006h-2.438a.17.17 0 0 0-.071.006c-.023.007-.045.019-.062.035a.17.17 0 0 0-.041.058.15.15 0 0 0-.011.069v1.246c-.001.023.003.047.012.068a.18.18 0 0 0 .041.056c.018.016.039.027.062.034s.047.009.07.006h.809v6.011c0 .122.06.182.172.182h1.457a.16.16 0 0 0 .075-.006c.025-.008.045-.021.063-.039a.16.16 0 0 0 .039-.063c.007-.024.009-.049.004-.073v-7.422zm-1.102-4.026a1.13 1.13 0 0 0-.622.175c-.185.118-.33.286-.417.485a1.07 1.07 0 0 0-.069.63 1.08 1.08 0 0 0 .303.56c.155.153.354.258.57.3a1.14 1.14 0 0 0 .645-.062 1.1 1.1 0 0 0 .499-.403 1.07 1.07 0 0 0 .185-.607.98.98 0 0 0-.055-.426.99.99 0 0 0-.234-.363 1.02 1.02 0 0 0-.37-.232 1.03 1.03 0 0 0-.435-.057h0zm-4.101 11.389a.2.2 0 0 0 .068-.031c.02-.014.037-.033.049-.055s.021-.045.024-.069 0-.049-.007-.073l-.38-1.196c-.015-.046-.048-.085-.091-.107s-.095-.028-.143-.015l-.54.169a5.04 5.04 0 0 1-1.21.169c-1.396 0-2.096-.912-2.096-2.467s.662-2.421 2.131-2.421a3.69 3.69 0 0 1 1.093.182l.562.144c.021.009.043.012.066.011s.045-.007.065-.018.037-.025.05-.043.022-.038.026-.06l.381-1.208c.039-.11 0-.19-.134-.228l-.7-.19a5.22 5.22 0 0 0-1.409-.194c-2.593 0-3.941 1.559-3.941 4.047S139.346 80 141.852 80a6.04 6.04 0 0 0 1.521-.215l.726-.203zm-14.455-7.376c-.002-.023-.009-.045-.02-.065s-.026-.038-.044-.053-.039-.025-.061-.032-.046-.009-.07-.006h-.821c-.125 0-.185.059-.185.169v7.422a.15.15 0 0 0 .006.073.16.16 0 0 0 .04.063c.018.018.04.031.064.039s.05.01.075.007h1.457c.024.002.049-.001.073-.01s.044-.022.061-.039.031-.038.039-.061.011-.047.008-.072v-3.734c0-1.559.7-2.421 1.915-2.421.894 0 1.43.613 1.43 1.618v4.537c0 .123.061.182.173.182h1.469c.113 0 .173-.059.173-.182v-4.744c0-1.888-1.128-3.029-3.025-3.029a2.99 2.99 0 0 0-1.237.249 2.92 2.92 0 0 0-1.014.735c-.186.156-.281.177-.381 0l-.125-.646zm-5.903 4.301v.106c0 1.187-.7 1.808-1.997 1.808-.786 0-1.227-.384-1.227-1.005 0-.541.367-.908 1.175-.908h2.049zm-4.179-4.203a.18.18 0 0 0-.068.029c-.02.014-.038.032-.051.054s-.02.045-.023.069a.16.16 0 0 0 .008.072l.367 1.187a.17.17 0 0 0 .025.068c.013.021.032.037.053.05a.17.17 0 0 0 .07.023c.025.003.049-.001.073-.009l.6-.178a4.61 4.61 0 0 1 1.275-.156c1.21 0 1.85.528 1.85 1.496v.097h-2.049c-1.936 0-2.986.967-2.986 2.48S119.722 80 121.546 80a2.93 2.93 0 0 0 1.216-.182c.388-.146.737-.372 1.026-.663.221-.19.32-.19.432.025l.134.503c.013.045.04.084.079.11s.086.038.133.034h.813c.024.002.049-.001.072-.01a.16.16 0 0 0 .062-.039c.017-.017.031-.038.039-.061s.011-.047.008-.072v-4.697c0-1.939-1.37-3.067-3.578-3.067a6.33 6.33 0 0 0-1.785.241l-.635.182zm-2.697-.241c.002-.024-.001-.048-.01-.071a.17.17 0 0 0-.038-.06c-.017-.017-.038-.031-.061-.039s-.048-.013-.072-.011a3.13 3.13 0 0 0-1.46.315 3.05 3.05 0 0 0-1.133.952c-.147.156-.22.131-.32-.051l-.268-.908c-.012-.044-.039-.082-.077-.109s-.084-.039-.13-.035h-.821c-.126 0-.186.059-.186.169v7.422a.15.15 0 0 0 .007.073c.008.023.021.045.039.063a.16.16 0 0 0 .065.039c.025.008.049.01.075.007h1.456a.17.17 0 0 0 .074-.008.16.16 0 0 0 .063-.039c.018-.017.032-.038.04-.062a.15.15 0 0 0 .009-.073v-1.905c0-2.957.782-4.165 2.593-4.25a.16.16 0 0 0 .072-.008c.023-.008.045-.021.062-.038s.031-.038.039-.06.011-.047.008-.071l-.026-1.242zm-12.873 1.651V70.25h5.397c.048.005.097-.007.137-.033s.07-.065.084-.111l.354-1.267c.009-.023.012-.049.008-.074a.14.14 0 0 0-.03-.068c-.016-.019-.038-.035-.062-.044a.15.15 0 0 0-.076-.008h-7.476a.17.17 0 0 0-.074.008.16.16 0 0 0-.063.039c-.018.017-.032.038-.04.062a.15.15 0 0 0-.009.073v10.848c-.003.025-.001.05.007.073a.16.16 0 0 0 .04.063c.018.018.04.031.064.039s.05.01.075.007h1.491c.112 0 .173-.059.173-.182V75.32h4.68c.108 0 .173-.059.173-.182v-1.267c0-.123-.065-.182-.173-.182l-4.68.025z"/><g fill-rule="evenodd"><path d="M39.572 43.515l6.772-11.46-6.772-11.456H26.033l-6.772 11.456 6.772 11.46h13.539zM4.118 47.612A31.51 31.51 0 0 1 .01 32.807a31.46 31.46 0 0 1 3.4-14.976l15.311 9.099-1.128 2.298-.782-1.326-3.539 2.083 5.341 7.604L4.118 47.612zm28.129 16.5c-5.306-.092-10.511-1.44-15.168-3.928S8.45 54.142 5.505 49.826l15.726-8.419 1.482 2.112h-1.577l.087 4.034 9.416-.718 1.608 17.277zm28.677-15.566c-2.729 4.453-6.524 8.191-11.059 10.892s-9.674 4.283-14.973 4.612l.402-17.518 2.593-.203-.782 1.343 3.613 1.952 4.08-8.335 16.128 7.257zm.562-32.058a31.49 31.49 0 0 1 4.106 14.813c.121 5.19-1.049 10.331-3.411 14.981l-15.298-9.099 1.115-2.315.795 1.343 3.531-2.083-5.328-7.629 14.49-10.012zM33.362 0c5.311.084 10.522 1.428 15.184 3.917s8.636 6.047 11.579 10.37l-15.717 8.406-1.482-2.112h1.577l-.082-4.038-9.421.71L33.362 0zM4.684 15.554c2.731-4.45 6.526-8.185 11.06-10.884S25.415.389 30.713.059l-.432 17.506-2.593.207.782-1.331-3.6-1.952-4.071 8.322-16.115-7.257z"/></g></g><defs><clipPath id="A"><path fill="#fff" d="M0 0h196v80H0z"/></clipPath></defs></svg>